<?xml version="1.0" encoding="utf-8"?>
<!-- Svg Vector Icons : http://www.onlinewebfonts.com/icon -->
<!DOCTYPE svg PUBLIC "-//W3C//DTD SVG 1.1//EN" "http://www.w3.org/Graphics/SVG/1.1/DTD/svg11.dtd">
<svg version="1.1" xmlns="http://www.w3.org/2000/svg" xmlns:xlink="http://www.w3.org/1999/xlink" x="0px" y="0px" viewBox="0 0 1000 1000" enable-background="new 0 0 1000 1000" xml:space="preserve">
<metadata> Svg Vector Icons : http://www.onlinewebfonts.com/icon </metadata>
<g><g transform="translate(0.000000,511.000000) scale(0.100000,-0.100000)"><path d="M4518.3,3810.7C2904,3636.6,1661.6,3095.9,503.6,2061.9C181.8,1774.3,100,1634.5,100,1389.2c0-203.1,63.3-340.3,216.3-482.7c134.5-121.3,258.5-166.2,456.3-166.2c189.9,2.6,311.3,68.6,580.3,316.5c1295.2,1200.2,3020.3,1690.8,4721.7,1340c954.9-195.2,1933.5-714.8,2651-1408.6c261.2-250.6,530.2-313.9,807.2-184.6c321.8,150.4,451.1,509.1,311.3,859.9c-84.4,208.4-812.5,828.3-1382.2,1176.5c-311.3,189.9-852,451.1-1200.2,580.3c-337.6,124-970.7,282.2-1358.5,340.3C5613,3802.8,4742.6,3834.5,4518.3,3810.7z M5890,3364.9c1279.3-195.2,2476.9-780.8,3421.2-1669.7c200.5-189.9,240-284.9,168.8-422.1c-52.8-100.2-116-137.2-237.4-137.2c-81.8,0-126.6,29-311.3,200.5c-904.8,836.2-2036.4,1369-3233.9,1524.6C4212.4,3053.7,2629.7,2600,1418.9,1637.2c-124-97.6-247.9-205.7-277-237.4C1012.7,1254.7,833.3,1136,741,1136c-134.5,0-245.3,118.7-245.3,263.8c0,100.2,13.2,124,166.2,269.1c973.4,941.7,2258,1545.8,3658.7,1725.1C4679.2,3438.8,5502.2,3425.6,5890,3364.9z"/><path d="M4821.7,1988c-1179.1-63.3-2292.3-535.5-3117.9-1321.5c-245.3-234.8-308.6-350.8-311.3-567.1c0-379.9,269.1-654.2,646.3-654.2c205.7,0,327.1,55.4,540.8,253.2C3302.3,363.1,4291.5,737.7,5164.6,677c854.7-60.7,1577.4-371.9,2244.8-970.7c234.8-208.4,348.2-263.8,551.3-263.8c440.5,0,746.5,406.2,625.2,825.6c-50.1,171.5-153,295.4-445.8,543.4c-633.1,538.1-1406,917.9-2194.7,1076.2C5570.8,1961.6,5109.2,2003.8,4821.7,1988z M5322.9,1581.8c960.2-87,1812.2-443.2,2556.1-1065.7C8240.3,212.8,8303.6,75.6,8148-80c-60.7-58-102.9-76.5-182-76.5c-92.3,0-131.9,23.7-350.8,211C6889.7,674.4,6098.4,1006.7,5191,1070c-944.3,68.6-2083.9-350.8-2819.8-1034c-200.5-184.6-287.5-221.6-416.8-187.3c-110.8,29-166.2,113.4-166.2,250.6c0,102.9,10.5,121.3,218.9,311.2c722.8,667.4,1669.7,1084.1,2653.6,1173.8C4993.1,1613.4,4993.1,1613.4,5322.9,1581.8z"/><path d="M4547.4,117.8C3943.3,9.6,3410.5-251.5,2972.6-655.1c-226.9-205.7-300.7-364-279.6-601.4c23.8-303.3,226.9-530.2,527.6-590.9c218.9-44.8,393,15.8,617.3,211c226.8,197.8,403.6,306,646.3,390.4c255.9,89.7,622.5,110.8,865.2,50.1c250.6-63.3,569.7-229.5,759.7-398.3c287.5-253.2,474.8-313.9,730.7-237.4c287.5,81.8,472.2,329.7,469.5,633.1c-2.6,205.7-71.2,342.9-266.4,530.2C6393.8-48.4,5388.8,268.1,4547.4,117.8z M5591.9-312.2c448.4-116.1,915.3-374.6,1194.9-659.5c110.8-116.1,131.9-150.4,131.9-240c0-179.4-174.1-300.7-342.9-237.4c-39.6,15.8-137.2,87.1-216.3,158.3c-197.8,179.4-448.4,324.4-746.5,427.3c-232.1,79.1-277,84.4-593.5,87c-245.3,0-390.4-13.2-514.4-47.5c-266.4-71.2-625.2-261.2-852-451.1c-240-200.5-277-216.3-401-174.1c-105.5,34.3-171.5,137.2-171.5,266.4c0,68.6,26.4,113.4,139.8,221.6c332.4,321.8,799.3,564.5,1297.8,672.6C4821.7-222.5,5288.6-233,5591.9-312.2z"/><path d="M4663.4-2000.4c-195.2-39.6-361.4-176.7-440.5-364c-50.1-126.6-47.5-743.9,7.9-873.1c50.1-124,153-232.1,287.5-303.3c95-52.8,147.7-58,474.8-58c419.4,0,517,31.7,667.4,211c110.8,134.5,137.2,253.2,137.2,609.3c0,277-7.9,329.7-63.3,451.1c-79.1,166.2-226.8,282.2-414.1,321.8C5175.2-1974,4808.5-1971.3,4663.4-2000.4z M5351.9-2448.8c42.2-52.8,50.1-105.5,50.1-350.8c0-269.1-2.6-290.2-65.9-350.8c-58-60.7-81.8-65.9-337.6-65.9c-237.4,0-284.9,7.9-345.6,55.4c-65.9,52.8-68.6,63.3-68.6,342.9c0,160.9,13.2,313.9,29,342.9c44.8,84.4,124,102.9,414.1,95C5280.7-2385.5,5304.4-2390.8,5351.9-2448.8z"/></g></g>
</svg>